<svg xmlns="http://www.w3.org/2000/svg" xmlns:xlink="http://www.w3.org/1999/xlink" viewBox="-17888 -5369.086 22.223 10.938">
  <defs>
    <style>
      .cls-1 {
        fill: #f2d207;
      }

      .cls-2 {
        fill: #fde852;
      }

      .cls-3 {
        fill: #fde22a;
      }

      .cls-4 {
        fill: #323232;
      }

      .cls-5 {
        fill: #fddc03;
      }

      .cls-6 {
        clip-path: url(#clip-path);
      }

      .cls-7 {
        fill: #f4ba48;
        opacity: 0.55;
      }
    </style>
    <clipPath id="clip-path">
      <path id="Path_3420" data-name="Path 3420" d="M10.358,46.1s-.923-.336-.172-.871l.517-.164a.187.187,0,0,0,.095-.1l.319-1.337s-.25-.4.086-.448a9.123,9.123,0,0,1,6.7-5.8,4.535,4.535,0,0,1,.811-.138,8.6,8.6,0,0,1,7.252,2.621l1.837.034s.742.19.716.862-.009.129-.009.129L28.5,44.246a1.068,1.068,0,0,0,.9.7s.207.267,2.44.31a.409.409,0,0,1-.009.742l-21.617.078" transform="translate(-9.891 -37.192)"/>
    </clipPath>
  </defs>
  <g id="Group_7898" data-name="Group 7898" transform="translate(-17897.6 -5406.278)">
    <g id="Group_7892" data-name="Group 7892" transform="translate(9.6 37.199)">
      <path id="Path_3367" data-name="Path 3367" class="cls-1" d="M48.994,41.61a5.879,5.879,0,0,1,1.19.974.28.28,0,0,0,.216.095c.509-.009,1.009.009,1.518-.009a.919.919,0,0,1,.905.888c-.017,1.2-.009,2.406-.009,3.6-.069-.017-.095-.078-.138-.129a1.964,1.964,0,0,1-.207-.569l-.026-.026h-.724a.28.28,0,0,0-.3.181,2.114,2.114,0,0,0-.224.44.45.45,0,0,0-.121.164c-.121.2-.216.414-.362.629a.564.564,0,0,1,.034-.3A7.613,7.613,0,0,0,51,46.689c.026-.112.06-.224.086-.336a.463.463,0,0,1,.457-.336h.647c.043,0,.095.017.129-.026,0-.034-.034-.052-.043-.086a6.51,6.51,0,0,0-.8-1.535,7.253,7.253,0,0,0-1.492-1.63,8.185,8.185,0,0,0-2.294-1.345,9.27,9.27,0,0,0-1.285-.405,9.606,9.606,0,0,0-.992-.2,10.956,10.956,0,0,0-1.5-.095c-.259,0-.517.009-.785.026-.207.017-.414.034-.621.069-.336.06-.673.121-1.009.2a9.606,9.606,0,0,0-1.224.379,8.581,8.581,0,0,0-1.457.742,9.668,9.668,0,0,0-1.44,1.13,4.254,4.254,0,0,1-.431.448c-.06-.009-.06.034-.06.078-.017.026-.06.043-.06.086-.034,0-.052.017-.052.06h0c-.034,0-.052.017-.052.06-.017.069-.1.095-.112.164-.034-.017-.112.121-.112-.026h0a.076.076,0,0,0,.052-.086h0a.138.138,0,0,0,.112-.164h0c.06,0,.06-.043.052-.086h0c.06-.026.138-.043.112-.138h0c.052-.043.2-.026.112-.164a8.366,8.366,0,0,1,1.793-1.733c.224-.112.44-.233.664-.345a9.347,9.347,0,0,1,1.638-.673l.638-.181c.241-.06.483-.095.724-.155.181-.043.371-.043.552-.078a5.468,5.468,0,0,1,1.061-.052,8.749,8.749,0,0,1,1.061.06c.371.06.742.112,1.112.2a8.848,8.848,0,0,1,1.061.319,10.861,10.861,0,0,1,1.259.543A2.564,2.564,0,0,0,48.994,41.61Z" transform="translate(-34.181 -39.996)"/>
      <path id="Path_3368" data-name="Path 3368" class="cls-1" d="M13.317,107.3h.948a.417.417,0,0,1,.457.345c.034.095.017.207.1.276.017.121.052.233.069.354.017.086.009.224.138.259a.351.351,0,0,1,.147.1,3.268,3.268,0,0,0,.328.276,5.857,5.857,0,0,1,.586.448.539.539,0,0,0,.345.138c.983-.009,1.957,0,2.94,0a.266.266,0,0,0-.06.224h0c-.086.009-.172-.026-.25.052s0,.181-.043.259c-.06-.026-.034-.078-.052-.112a.151.151,0,0,0-.216.009c-.026.078.034.121.095.172a.176.176,0,0,0-.043.009H14.171c-.06,0-.112.009-.147-.069s-.112-.095-.2-.095H12.567a.228.228,0,1,1,0-.448h3.5a2.281,2.281,0,0,0-.543-.474,1.109,1.109,0,0,0-.362-.259c-.034-.009-.06-.069-.095-.034s-.017.078,0,.121a.711.711,0,0,1,.06.267c-.069.009-.069-.043-.095-.078a4.72,4.72,0,0,0-.431-.724c-.026-.155-.147-.259-.2-.4a.285.285,0,0,0-.336-.216h-.759C13.154,107.541,13.154,107.4,13.317,107.3Z" transform="translate(-12.067 -101.262)"/>
      <path id="Path_3369" data-name="Path 3369" class="cls-2" d="M212.729,111.9h.724l.026.026a1.673,1.673,0,0,0,.207.569c.034.052.06.112.138.129a1.2,1.2,0,0,0,.552.44,4.373,4.373,0,0,0,1.285.354,10.377,10.377,0,0,0,1.268.043.468.468,0,0,1,.474.448c.026.216-.233.448-.466.448h-4.225a.315.315,0,0,1,.276-.052c.138.009.207-.026.172-.172.759-.017,1.526.034,2.294-.052.009-.06.009-.172.129-.172s.19-.017.172-.155c0-.017.034-.035.017-.078h-2.639c-.078-.172-.017-.371-.069-.552-.095-.319-.164-.647-.285-.966C212.738,112.09,212.643,112,212.729,111.9Zm3.027,2.061c.121.026.026.19.181.19.319-.009.647,0,.966,0a.247.247,0,0,0,.25-.233.231.231,0,0,0-.259-.216h-.836c-.052,0-.121-.026-.155.034-.043.086.06.069.095.1.017.017.043.034.043.052.017.052.035.112-.026.147-.034.017-.069.06-.112.034-.078-.052.043-.086.026-.138A.192.192,0,0,0,215.755,113.961Zm-.121.181c.052-.009.112.009.112-.069a.089.089,0,0,0-.095-.086.12.12,0,0,0-.112.1C215.531,114.159,215.592,114.133,215.635,114.142Z" transform="translate(-195.182 -105.466)"/>
      <path id="Path_3370" data-name="Path 3370" class="cls-1" d="M10.842,111.9H11.6a.2.2,0,0,1,.009.172,3.491,3.491,0,0,0-.147.423,4.7,4.7,0,0,0-.121.5,4.194,4.194,0,0,0-.095.474.418.418,0,0,1-.06.224H10.109a.228.228,0,1,0,0,.448h1.259c.086,0,.164.017.2.095s.086.069.147.069h4.639a.115.115,0,0,0,.043-.009c-.06-.052-.121-.086-.095-.172.017-.06.181-.069.216-.009.017.034-.009.086.052.112.043-.086-.017-.181.043-.259s.164-.043.25-.052a.038.038,0,0,0,.052.026c0,.034-.009.078.034.078a.124.124,0,0,0,.129-.095c-.06.009-.112.009-.164.017-.009-.026-.034-.026-.06-.026a.3.3,0,0,1,.06-.224h.1c.009.052,0,.1-.095.138.129,0,.233.017.241.121,0,.078-.078.129-.164.138-.026,0-.034.026-.034.052-.017.069-.078.095-.112.138-.034,0-.078,0-.086.052-.026.009-.06-.009-.078.034a3.45,3.45,0,0,1-.517,0c-.026-.043-.069-.026-.1-.026h-4.51c-.043,0-.086-.017-.121.026,0,.009-.009.009-.017.009-.448,0-.9-.017-1.345,0a.481.481,0,0,1-.474-.457.466.466,0,0,1,.466-.448.7.7,0,0,0,.319-.078.3.3,0,0,0,.19-.259c.052-.371.138-.742.216-1.121A.446.446,0,0,0,10.842,111.9Zm5.915,2.1c-.052.009-.112.034-.112.095a.1.1,0,0,0,.112.095c.06,0,.095-.009.1-.078A.128.128,0,0,0,16.757,114Z" transform="translate(-9.6 -105.466)"/>
      <path id="Path_3371" data-name="Path 3371" class="cls-2" d="M72.661,38.892a2.167,2.167,0,0,1-.491-.241,10.861,10.861,0,0,0-1.259-.543,8.849,8.849,0,0,0-1.061-.319c-.362-.086-.742-.138-1.112-.2a8.747,8.747,0,0,0-1.061-.06,5.468,5.468,0,0,0-1.061.052c-.181.034-.371.034-.552.078-.241.06-.483.095-.724.155-.216.052-.431.112-.638.181a9.348,9.348,0,0,0-1.638.673c-.224.112-.44.233-.664.345a1.34,1.34,0,0,1,.44-.319,8.355,8.355,0,0,1,1.664-.836c.267-.095.543-.172.811-.25.44-.121.888-.19,1.337-.267h.017c.379.009.75-.095,1.13-.052.405.052.811.034,1.207.112a9.245,9.245,0,0,1,1.362.336,8.05,8.05,0,0,1,1.966.931A.722.722,0,0,1,72.661,38.892Z" transform="translate(-57.847 -37.278)"/>
      <path id="Path_3372" data-name="Path 3372" class="cls-3" d="M92.7,138c.009-.052.043-.052.086-.052.043.052.1.026.155.026h9.942c.138,0,.19-.034.164-.172h.448c.026.147-.043.181-.172.172-.095-.009-.2-.034-.276.052H98.106c-.043-.043-.1-.026-.164-.026h-5.07A1.15,1.15,0,0,1,92.7,138Z" transform="translate(-85.535 -129.132)"/>
      <path id="Path_3373" data-name="Path 3373" class="cls-3" d="M27.536,84.9c0,.155.078.009.112.026,0,.052-.034.078-.06.112a6.617,6.617,0,0,0-.716,1.216c-.043.095-.06.207-.155.276h0c-.009-.009-.009-.017-.017-.026a8.544,8.544,0,0,1,.776-1.535A.562.562,0,0,1,27.536,84.9Z" transform="translate(-25.226 -80.794)"/>
      <path id="Path_3374" data-name="Path 3374" class="cls-1" d="M91.969,140.1c.06,0,.121.009.181.009h5.07c.052,0,.112-.017.164.026a.147.147,0,0,0-.06.009c-1.328,0-2.656-.009-3.984-.009H91.9C91.909,140.091,91.943,140.109,91.969,140.1Z" transform="translate(-84.804 -131.234)"/>
      <path id="Path_3375" data-name="Path 3375" class="cls-4" d="M37.23,140.5H35.79a3.456,3.456,0,0,1-.517,0H30.547c0,.009-.009.009-.017.009a.586.586,0,0,0-.017.345c.086.423.172.845.259,1.259a.45.45,0,0,0,.612.4c.405-.086.8-.164,1.207-.25a8.54,8.54,0,0,0,.931-.207.735.735,0,0,0,.405-.086c.034-.009.069-.009.1-.017.034.017.06,0,.086-.009.155-.026.31-.06.466-.086,1.587-.319,3.173-.647,4.76-.966l1.88-.388Z" transform="translate(-28.694 -131.6)"/>
      <path id="Path_3376" data-name="Path 3376" class="cls-3" d="M40.5,77.5c.078.138-.06.121-.112.164C40.381,77.578,40.433,77.534,40.5,77.5Z" transform="translate(-37.734 -74.032)"/>
      <path id="Path_3377" data-name="Path 3377" class="cls-3" d="M37.212,82a.134.134,0,0,1-.112.164A.177.177,0,0,1,37.212,82Z" transform="translate(-34.729 -78.144)"/>
      <path id="Path_3378" data-name="Path 3378" class="cls-3" d="M39.112,79.4c.026.095-.043.112-.112.138A.169.169,0,0,1,39.112,79.4Z" transform="translate(-36.465 -75.768)"/>
      <path id="Path_3379" data-name="Path 3379" class="cls-3" d="M36.521,83.9a.087.087,0,0,1-.052.086C36.461,83.943,36.469,83.909,36.521,83.9Z" transform="translate(-34.15 -79.88)"/>
      <path id="Path_3380" data-name="Path 3380" class="cls-3" d="M38.437,81c0,.043,0,.078-.052.086C38.377,81.034,38.412,81.026,38.437,81Z" transform="translate(-35.902 -77.23)"/>
      <path id="Path_3381" data-name="Path 3381" class="cls-2" d="M26.709,103.5c.009.009.009.017.017.026H26.7A.032.032,0,0,0,26.709,103.5Z" transform="translate(-25.226 -97.79)"/>
      <path id="Path_3382" data-name="Path 3382" class="cls-2" d="M26.751,50.33c.086-.069.1-.181.155-.276a7.492,7.492,0,0,1,.716-1.216c.026-.034.06-.06.06-.112.009-.078.1-.095.112-.164.034,0,.052-.026.052-.06h0c.034,0,.052-.017.052-.06s.043-.052.06-.086a.11.11,0,0,0,.06-.078c.172-.129.276-.31.431-.448a9.135,9.135,0,0,1,1.44-1.13,9.262,9.262,0,0,1,1.457-.742,8.738,8.738,0,0,1,1.224-.379c.336-.078.673-.147,1.009-.2.207-.034.414-.052.621-.069.259-.017.517-.026.785-.026a9.673,9.673,0,0,1,1.5.095c.328.043.664.129.992.2a9.652,9.652,0,0,1,1.285.405,8.308,8.308,0,0,1,2.294,1.345,7.875,7.875,0,0,1,1.492,1.63,6.51,6.51,0,0,1,.8,1.535c.009.026.052.043.043.086h-.785c-.06,0-.095-.009-.121-.078-.069-.181-.207-.328-.285-.509a1.75,1.75,0,0,0-.155-.224.109.109,0,0,0-.009-.052l-.026-.026a1.268,1.268,0,0,1-.086-.112,6.925,6.925,0,0,0-.707-.966,5.525,5.525,0,0,0-1.69-1.337c-.095-.052-.19-.095-.276.017.207.06.216.069.207.155s-.069.1-.138.086c.086-.164.086-.164-.112-.164h-.026c0-.034-.017-.086,0-.112.078-.121-.017-.155-.095-.2a11.9,11.9,0,0,0-1.6-.586,9.2,9.2,0,0,0-1.44-.267A5.292,5.292,0,0,0,35,46.157c-.379.026-.759.026-1.138.086-.319.052-.638.112-.948.172a6.792,6.792,0,0,0-1.086.31,7.983,7.983,0,0,0-1.561.716,3.766,3.766,0,0,0-.759.509,9.878,9.878,0,0,0-.828.871,5.668,5.668,0,0,0-.655.974,2.16,2.16,0,0,0-.276.448l-.181.31c-.026.043-.078.026-.112.034-.207,0-.414-.009-.612,0-.112.009-.147-.026-.095-.129C26.751,50.408,26.751,50.374,26.751,50.33Z" transform="translate(-25.25 -44.594)"/>
      <path id="Path_3383" data-name="Path 3383" class="cls-2" d="M107.211,87.757c0,.095-.078.121-.147.155-.052-.06.026-.086.026-.138-.043-.034-.086-.009-.138-.009.078.172.069.345-.19.362-.043,0-.052.026-.043.052a.185.185,0,0,1-.078.129c-.043.043-.1.078-.043.155a.038.038,0,0,1-.017.06.055.055,0,0,1-.078-.009c-.034-.034-.1-.06-.112,0-.009.078-.2.078-.086.207a.288.288,0,0,1,.069.207c-.06-.06-.095-.155-.2-.172-.017-.034-.043-.06-.086-.034s-.052-.009-.052-.043c.06,0,.052-.086.121-.095.043-.009-.017-.043-.017-.069a.167.167,0,0,0,.043-.2.147.147,0,0,0-.095.164h-.164c-.112-.009-.19.026-.2.164.1-.034.224-.129.3.034h-.181c-.017,0-.043.009-.043.017-.009.026,0,.043.026.06a.109.109,0,0,0,.112.026c.043-.017.078-.026.086.043h0a.249.249,0,0,1-.276-.026.119.119,0,0,1-.026-.034c0-.112-.086-.078-.138-.078h-2.225c-.043,0-.095-.017-.129.026-.164,0-.241.129-.336.224a.51.51,0,0,1,.517-.5h2.371c.043-.043,0-.052-.009-.078s-.017-.06.009-.078a.069.069,0,0,1,.086.017,1.89,1.89,0,0,0,.155.121c.026-.095.121-.147.216-.216.112-.078.164-.241.345-.233a.267.267,0,0,0,.017-.06.147.147,0,0,1,.155-.147.269.269,0,0,0,.181-.078C107.013,87.714,107.142,87.636,107.211,87.757Zm-.621.414c.009-.06-.026-.086-.095-.078s-.121.026-.121.1a.093.093,0,0,0,.1.095C106.547,88.283,106.6,88.257,106.59,88.171Zm.2-.354c-.052.017-.112.034-.1.1s.026.112.095.112.095-.043.095-.1A.1.1,0,0,0,106.789,87.817Zm-.5.457c-.043.112-.043.112.009.2C106.349,88.335,106.349,88.335,106.289,88.274Z" transform="translate(-94.855 -83.34)"/>
      <path id="Path_3384" data-name="Path 3384" class="cls-2" d="M164.853,69.748c.009-.147.1-.172.233-.164.147.1.181.3.043.362-.078.034-.172.034-.164.164,0,.035-.052.026-.086.017a.759.759,0,0,0-.129-.043h0a.092.092,0,0,0-.112-.112h0a.514.514,0,0,1-.052-.095c-.009-.043-.026-.095.017-.112a.155.155,0,0,1,.138,0,.076.076,0,0,1,.043.1c-.026.078.06.1.121.172C164.913,69.921,164.827,69.843,164.853,69.748Zm.181-.052c-.026.009-.086-.017-.086.052s.06.078.112.086.069-.017.078-.06C165.138,69.7,165.095,69.7,165.034,69.7Z" transform="translate(-151.212 -66.797)"/>
      <path id="Path_3385" data-name="Path 3385" class="cls-2" d="M151.254,84.824c0,.06-.009.112-.078.112a.261.261,0,0,0-.129-.172.157.157,0,0,1-.069-.164h.112A.25.25,0,0,0,151.254,84.824Z" transform="translate(-138.786 -80.52)"/>
      <path id="Path_3386" data-name="Path 3386" class="cls-2" d="M149.712,83.5c-.043-.009-.112.017-.112-.06a.041.041,0,0,1,.043-.043c.095-.009.069.06.069.1Z" transform="translate(-137.528 -79.415)"/>
      <path id="Path_3387" data-name="Path 3387" class="cls-3" d="M207.348,113.668a1.141,1.141,0,0,0-.129-.509,4.454,4.454,0,0,0-.285-.621c0-.009-.026-.009-.034-.017a4.209,4.209,0,0,1,.224-.44.3.3,0,0,1,.3-.181c-.086.1.009.19.035.267.121.319.19.647.285.966.052.19-.009.379.069.552A1.217,1.217,0,0,1,207.348,113.668Z" transform="translate(-189.888 -105.466)"/>
      <path id="Path_3388" data-name="Path 3388" class="cls-3" d="M41.06,80.088a.076.076,0,0,1-.06.078C41,80.123,41,80.08,41.06,80.088Z" transform="translate(-38.292 -76.396)"/>
      <path id="Path_3389" data-name="Path 3389" class="cls-3" d="M39.134,82.6a.057.057,0,0,1-.052.06A.049.049,0,0,1,39.134,82.6Z" transform="translate(-36.539 -78.692)"/>
      <path id="Path_3390" data-name="Path 3390" class="cls-3" d="M39.752,82a.057.057,0,0,1-.052.06C39.7,82.017,39.717,82,39.752,82Z" transform="translate(-37.105 -78.144)"/>
      <path id="Path_3391" data-name="Path 3391" class="cls-3" d="M221.526,111.926l-.026-.026Z" transform="translate(-203.229 -105.466)"/>
      <path id="Path_3392" data-name="Path 3392" class="cls-1" d="M31,140.19c.034-.034.078-.026.121-.026h4.51c.034,0,.078-.017.1.026Z" transform="translate(-29.155 -131.289)"/>
      <path id="Path_3393" data-name="Path 3393" class="cls-5" d="M34.248,119.1a4.72,4.72,0,0,1,.431.724c.017.034.026.086.095.078a.711.711,0,0,0-.06-.267c-.009-.043-.034-.086,0-.121s.06.026.095.034a.9.9,0,0,1,.362.259,2.15,2.15,0,0,1,.543.474H33.8a2.351,2.351,0,0,1,.25-.836A.862.862,0,0,1,34.248,119.1Z" transform="translate(-31.713 -112.045)"/>
      <path id="Path_3394" data-name="Path 3394" class="cls-3" d="M28.857,112.564a.772.772,0,0,0-.2.345,2.188,2.188,0,0,0-.25.836H27.9a.4.4,0,0,0,.06-.224,4.194,4.194,0,0,1,.095-.474c.026-.172.086-.336.121-.5.034-.147.1-.285.147-.422a.175.175,0,0,0-.009-.172.29.29,0,0,1,.336.216C28.711,112.305,28.84,112.409,28.857,112.564Z" transform="translate(-26.322 -105.509)"/>
      <path id="Path_3395" data-name="Path 3395" class="cls-1" d="M108.967,132.641h0a.231.231,0,0,0-.259-.216h-.88a.185.185,0,0,0-.069,0h-2.828a1.519,1.519,0,0,1-.483-.026.641.641,0,0,1-.224.026h-9.83c.009.052,0,.1-.095.138.129,0,.233.017.241.121,0,.078-.078.129-.164.138-.026,0-.034.026-.034.052h10.606c.6-.017,1.854.017,2.725-.009a.071.071,0,0,0,.06.009c.319-.009.647,0,.966,0a.261.261,0,0,0,.25-.2c.095-.009.172-.017.2-.017C109.217,132.659,109.114,132.659,108.967,132.641Z" transform="translate(-86.997 -124.198)"/>
      <path id="Path_3396" data-name="Path 3396" class="cls-1" d="M245.795,136.255c-.034-.009-.095.017-.095-.052a.113.113,0,0,1,.112-.1.094.094,0,0,1,.095.086C245.907,136.272,245.838,136.255,245.795,136.255Z" transform="translate(-225.342 -127.579)"/>
      <path id="Path_3397" data-name="Path 3397" class="cls-5" d="M93.9,137.9h10.157c.017.129-.034.172-.164.172H93.955c-.052,0-.112.017-.155-.026C93.826,137.995,93.886,137.969,93.9,137.9Z" transform="translate(-86.54 -129.224)"/>
      <path id="Path_3398" data-name="Path 3398" class="cls-1" d="M91.321,136.3c.069.017.1.043.095.112s-.043.086-.1.078a.106.106,0,0,1-.112-.095C91.209,136.334,91.26,136.309,91.321,136.3Z" transform="translate(-84.164 -127.762)"/>
      <path id="Path_3399" data-name="Path 3399" class="cls-1" d="M94.3,135.417c.052-.009.1-.009.164-.017a.133.133,0,0,1-.129.095c-.034,0-.026-.043-.034-.078Z" transform="translate(-86.997 -126.939)"/>
      <path id="Path_3400" data-name="Path 3400" class="cls-1" d="M93.752,135.392c-.026,0-.043,0-.052-.026h0a.038.038,0,0,1,.052.026Z" transform="translate(-86.448 -126.905)"/>
      <path id="Path_3401" data-name="Path 3401" class="cls-1" d="M101.425,99.647c.095.017.129.112.2.172.017.009.043.017.043.026a1.764,1.764,0,0,0,.095.638c.086.509.2,1.009.3,1.518,0,.009-.009.017-.017.026-.078-.043-.086-.129-.112-.2-.2-.569-.457-1.121-.664-1.681a.16.16,0,0,0-.19-.129c-.785.009-1.578.009-2.363,0-.138,0-.19.06-.233.181-.095.276-.216.543-.328.811-.078.19-.138.388-.224.569-.069.155-.129.319-.2.474-.009,0-.017-.009-.034-.009l.44-2.225c.095-.095.181-.224.336-.224H100.8c.069,0,.129-.009.181.052a.119.119,0,0,1,.026.034.165.165,0,0,0,.276.026h0C101.33,99.7,101.356,99.63,101.425,99.647Z" transform="translate(-90.103 -94.222)"/>
      <path id="Path_3402" data-name="Path 3402" class="cls-1" d="M190.9,115.138c-.069-.009-.155.026-.216-.052-.095-.121-.052-.216.138-.293a.284.284,0,0,1,.276.043c.086.06.035.164.043.25,0,.043-.034.052-.069.052A1.15,1.15,0,0,1,190.9,115.138Z" transform="translate(-175.027 -108.091)"/>
      <path id="Path_3403" data-name="Path 3403" class="cls-1" d="M113.823,115.279H113.8c-.19,0-.276-.112-.2-.285.043-.095.164-.078.241-.069.181.009.241.112.2.293a.069.069,0,0,1-.078.06Z" transform="translate(-104.605 -108.224)"/>
      <path id="Path_3404" data-name="Path 3404" class="cls-3" d="M203.926,96.326,203.9,96.3Z" transform="translate(-187.146 -91.211)"/>
      <path id="Path_3405" data-name="Path 3405" class="cls-3" d="M109.2,99.284c-.043-.06-.112-.052-.181-.052H106.7c.034-.043.086-.026.129-.026h2.225C109.114,99.2,109.2,99.172,109.2,99.284Z" transform="translate(-98.327 -93.859)"/>
      <path id="Path_3406" data-name="Path 3406" class="cls-2" d="M136,97.085c-.078-.155-.2-.06-.3-.034,0-.138.078-.172.2-.164h.164a.188.188,0,0,1,.043.034c0,.026.069.06.017.069-.069.009-.052.1-.121.095Z" transform="translate(-124.827 -91.746)"/>
      <path id="Path_3407" data-name="Path 3407" class="cls-1" d="M143.416,92.386a.1.1,0,0,1-.112.112.093.093,0,0,1-.1-.095c0-.069.052-.1.121-.1S143.424,92.326,143.416,92.386Z" transform="translate(-131.68 -87.556)"/>
      <path id="Path_3408" data-name="Path 3408" class="cls-1" d="M146.895,89.2a.091.091,0,0,1,.086.1c0,.069-.026.1-.095.1s-.095-.052-.095-.112S146.843,89.217,146.895,89.2Z" transform="translate(-134.961 -84.723)"/>
      <path id="Path_3409" data-name="Path 3409" class="cls-3" d="M137.038,99.286c-.06-.017-.086.052-.138.06-.009-.06-.043-.06-.086-.043a.109.109,0,0,1-.112-.026c-.017-.017-.035-.034-.026-.06a.066.066,0,0,1,.043-.017h.181c0,.034.009.06.052.043S137.012,99.243,137.038,99.286Z" transform="translate(-125.716 -93.861)"/>
      <path id="Path_3410" data-name="Path 3410" class="cls-5" d="M141.868,94.5c.069.069.069.069.009.2C141.825,94.612,141.825,94.6,141.868,94.5Z" transform="translate(-130.434 -89.566)"/>
      <path id="Path_3411" data-name="Path 3411" class="cls-3" d="M139.926,95.3a.188.188,0,0,1-.043-.034.152.152,0,0,1,.095-.164A.191.191,0,0,1,139.926,95.3Z" transform="translate(-128.648 -90.114)"/>
      <path id="Path_3412" data-name="Path 3412" class="cls-3" d="M136.276,100.526A.164.164,0,0,1,136,100.5.234.234,0,0,0,136.276,100.526Z" transform="translate(-125.101 -95.049)"/>
      <path id="Path_3413" data-name="Path 3413" class="cls-3" d="M156.186,81.1c.069.017.138.034.129.112a.113.113,0,0,1-.112.1.1.1,0,0,1-.1-.121A.094.094,0,0,1,156.186,81.1Z" transform="translate(-143.468 -77.321)"/>
      <path id="Path_3414" data-name="Path 3414" class="cls-3" d="M165.3,74.188a.092.092,0,0,1,.112.112A.347.347,0,0,1,165.3,74.188Z" transform="translate(-151.875 -71.005)"/>
      <path id="Path_3415" data-name="Path 3415" class="cls-1" d="M168.986,70.9c.06,0,.112.009.1.078-.009.043-.034.069-.078.06s-.112-.026-.112-.086S168.96,70.909,168.986,70.9Z" transform="translate(-155.164 -68.001)"/>
      <path id="Path_3416" data-name="Path 3416" class="cls-5" d="M56.264,87.333a4.454,4.454,0,0,0-.285-.621c0-.009-.026-.009-.034-.017a.388.388,0,0,0-.121.164c-.121.2-.216.414-.362.629a.564.564,0,0,1,.034-.3,7.613,7.613,0,0,0,.259-.862c-.1-.026-.095-.138-.164-.2-.181-.172-.345-.362-.543-.526a6.541,6.541,0,0,0-.742-.543,9.153,9.153,0,0,0-1-.517c-.267-.129-.552-.216-.828-.319a4.17,4.17,0,0,0-.44-.121,6.416,6.416,0,0,0-2.432-.423,2.26,2.26,0,0,0-.241-.009c-.7.017-1.4-.017-2.087.06a.19.19,0,0,0-.069.009c-.293.069-.6.069-.9.147-.216.052-.448.078-.655.138-.233.06-.474.121-.707.2-.285.095-.56.207-.836.319a7.047,7.047,0,0,0-.8.414,5.244,5.244,0,0,0-.888.612,6.971,6.971,0,0,0-.569.56c-.06.06-.052.164-.155.181.017.121.052.233.069.354.017.086.009.224.138.259a.351.351,0,0,1,.147.1,3.266,3.266,0,0,0,.328.276,5.858,5.858,0,0,1,.586.448.539.539,0,0,0,.345.138c.983-.009,1.957,0,2.94,0h9.933a.994.994,0,0,0,.224-.026A1.539,1.539,0,0,0,56.264,87.333Zm-7.89-.69a.069.069,0,0,1-.078.06h-.164c-.19,0-.276-.112-.2-.285.043-.095.164-.078.241-.069C48.357,86.358,48.417,86.453,48.374,86.643Zm2.492.811c-.078-.043-.086-.129-.112-.2-.2-.569-.457-1.121-.664-1.681a.16.16,0,0,0-.19-.129c-.785.009-1.578.009-2.363,0-.138,0-.19.06-.233.181-.095.276-.216.543-.328.811-.078.19-.138.388-.224.569-.069.155-.129.319-.2.474-.009,0-.017-.009-.034-.009l.44-2.225a.51.51,0,0,1,.517-.5h2.371l.009-.009a1.27,1.27,0,0,1,.5.2c-.017.026-.026.052.026.112a.288.288,0,0,1,.069.207c.017.009.043.017.043.026a1.764,1.764,0,0,0,.095.638c.086.509.2,1.009.3,1.518C50.883,87.428,50.874,87.436,50.866,87.453Zm4.173-.811c0,.043-.034.052-.069.052h-.164c-.069-.009-.155.026-.216-.052-.095-.121-.052-.216.138-.293a.284.284,0,0,1,.276.043C55.082,86.462,55.039,86.565,55.039,86.643Z" transform="translate(-38.932 -79.648)"/>
      <path id="Path_3417" data-name="Path 3417" class="cls-3" d="M40.381,66.891c-.06,0-.095-.009-.121-.078-.069-.181-.207-.328-.285-.509a1.749,1.749,0,0,0-.155-.224c-.06.052-.078-.017-.095-.043a5.02,5.02,0,0,0-.914-.948,6.071,6.071,0,0,0-1-.69c-.017-.009-.043-.026-.06-.034h0a3.7,3.7,0,0,0-.673-.388.146.146,0,0,1,.034-.121c.086-.164.086-.164-.112-.164h-.026a.147.147,0,0,0-.06.009.277.277,0,0,1,.129.259,9.041,9.041,0,0,0-2.776-.724,2.835,2.835,0,0,0-.466-.043h-.069c-.112-.009-.233-.017-.354-.017s-.233-.017-.354-.034a5.707,5.707,0,0,0-.767.026h0a1.527,1.527,0,0,1-.2.009c-.233.009-.457.043-.69.069-.276.034-.552.078-.819.138q-.491.1-.983.259a9.97,9.97,0,0,0-1.268.509,6.928,6.928,0,0,0-.819.466,6.209,6.209,0,0,0-1.466,1.3c-.06.078-.1.172-.207.2a2.16,2.16,0,0,0-.276.448l-.181.31c-.026.043-.078.026-.112.035-.207,0-.414-.009-.612,0-.112.009-.147-.026-.095-.129a.294.294,0,0,0,.017-.121h-.026c-.043.129-.078.259-.224.31h.948a.417.417,0,0,1,.457.345c.034.095.017.207.1.276.1-.017.095-.129.155-.181.19-.19.362-.388.569-.56a5.243,5.243,0,0,1,.888-.612,7.852,7.852,0,0,1,.8-.414c.276-.112.552-.224.836-.319.233-.078.466-.138.707-.2.216-.06.44-.078.655-.138.293-.078.6-.078.9-.147a.19.19,0,0,1,.069-.009c.7-.078,1.388-.043,2.087-.06.3-.009.595.06.9.078a2.649,2.649,0,0,1,.629.095c.078.026.241,0,.233-.034l.138.026a.32.32,0,0,0,.138.121.505.505,0,0,1,.2.009c.285.129.595.155.888.267.276.1.56.19.828.319a10.973,10.973,0,0,1,1,.517,6.541,6.541,0,0,1,.742.543c.19.164.354.362.543.526.069.06.06.172.164.2.026-.112.06-.224.086-.336a.463.463,0,0,1,.457-.336h.647c.043,0,.095.017.129-.026C40.907,66.891,40.64,66.891,40.381,66.891Z" transform="translate(-23.032 -60.905)"/>
      <path id="Path_3418" data-name="Path 3418" class="cls-1" d="M55.712,59.041l-.026-.026A1.268,1.268,0,0,1,55.6,58.9a6.926,6.926,0,0,0-.707-.966,5.168,5.168,0,0,0-.931-.862h0a3.045,3.045,0,0,0-.371-.25c-.129-.078-.25-.147-.388-.216a1.2,1.2,0,0,0-.112-.052c-.078-.043-.164-.078-.241-.112a.4.4,0,0,0-.086-.043c-.155-.069-.31-.138-.466-.2a.067.067,0,0,0-.026-.009h0c-.362-.147-.742-.259-1.112-.371a9.2,9.2,0,0,0-1.44-.267,5.292,5.292,0,0,0-1.043-.052c-.379.026-.759.026-1.138.086-.319.052-.638.112-.948.172a6.791,6.791,0,0,0-1.086.31,7.982,7.982,0,0,0-1.561.716,3.766,3.766,0,0,0-.759.509,9.879,9.879,0,0,0-.828.871,5.669,5.669,0,0,0-.655.974c.1-.026.147-.121.207-.2a6.209,6.209,0,0,1,1.466-1.3,6.927,6.927,0,0,1,.819-.466,9.484,9.484,0,0,1,1.268-.509,9.131,9.131,0,0,1,.983-.259c.267-.06.543-.1.819-.138.233-.026.457-.06.69-.069a7.181,7.181,0,0,1,.966-.034c.259.026.517.052.776.052a4.136,4.136,0,0,1,.647.078,9.135,9.135,0,0,1,2.233.595c0-.034,1.069.509,1.069.509h0c.017.009.043.026.06.034a5.727,5.727,0,0,1,1,.69,5.02,5.02,0,0,1,.914.948c.017.017.034.095.095.043A.117.117,0,0,0,55.712,59.041Z" transform="translate(-38.932 -53.926)"/>
    </g>
    <g id="Group_7894" data-name="Group 7894" transform="translate(9.625 37.192)">
      <g id="Group_7893" data-name="Group 7893" class="cls-6" transform="translate(0 0)">
        <path id="Path_3419" data-name="Path 3419" class="cls-7" d="M22.729,12.149H.664A.876.876,0,0,1,0,11.373V.664A.67.67,0,0,1,.664,0H22.729a.67.67,0,0,1,.664.664V11.373A.876.876,0,0,1,22.729,12.149Z" transform="translate(-0.853 -3.207)"/>
      </g>
    </g>
  </g>
</svg>
