<svg xmlns="http://www.w3.org/2000/svg" viewBox="-18241 -3035.873 21.023 11.441">
  <defs>
    <style>
      .cls-1 {
        opacity: 0.839;
      }

      .cls-2 {
        fill: #007aff;
      }
    </style>
  </defs>
  <g id="_66880" data-name="66880" class="cls-1" transform="translate(-18241 -3035.873)">
    <g id="Group_7605" data-name="Group 7605" transform="translate(0 0)">
      <path id="Path_3279" data-name="Path 3279" class="cls-2" d="M10.512,112.177A12.9,12.9,0,0,1,3.154,109.5a18.625,18.625,0,0,1-3.009-2.658.594.594,0,0,1,0-.778,18.628,18.628,0,0,1,3.009-2.658,12.9,12.9,0,0,1,7.358-2.674,12.9,12.9,0,0,1,7.358,2.674,18.628,18.628,0,0,1,3.009,2.658.594.594,0,0,1,0,.778,18.628,18.628,0,0,1-3.009,2.658A12.9,12.9,0,0,1,10.512,112.177Zm-9.1-5.72a18.763,18.763,0,0,0,2.459,2.1,11.95,11.95,0,0,0,6.643,2.436,11.95,11.95,0,0,0,6.643-2.436,18.764,18.764,0,0,0,2.459-2.1,18.759,18.759,0,0,0-2.459-2.1,11.949,11.949,0,0,0-6.643-2.436,11.949,11.949,0,0,0-6.643,2.436A18.757,18.757,0,0,0,1.41,106.457Z" transform="translate(0 -100.736)"/>
    </g>
    <g id="Group_7606" data-name="Group 7606" transform="translate(6.826 2.035)">
      <path id="Path_3280" data-name="Path 3280" class="cls-2" d="M147.206,150.893a3.686,3.686,0,1,1,2.428-6.459.594.594,0,1,1-.783.894,2.5,2.5,0,1,0,.852,1.879.594.594,0,0,1,1.189,0A3.69,3.69,0,0,1,147.206,150.893Z" transform="translate(-143.52 -143.521)"/>
    </g>
    <g id="Group_7607" data-name="Group 7607" transform="translate(9.323 4.532)">
      <path id="Path_3281" data-name="Path 3281" class="cls-2" d="M197.209,198.4a1.189,1.189,0,1,1,1.189-1.189A1.19,1.19,0,0,1,197.209,198.4Z" transform="translate(-196.02 -196.021)"/>
    </g>
  </g>
</svg>
