<svg xmlns="http://www.w3.org/2000/svg" viewBox="-18427.998 -2830.742 38.162 38.212">
  <defs>
    <style>
      .cls-1 {
        fill: #f4f0d3;
      }

      .cls-2 {
        fill: #e8e4c8;
      }

      .cls-3 {
        fill: #efc75e;
      }

      .cls-4 {
        fill: #e3bd59;
      }

      .cls-5 {
        fill: #e2574c;
      }

      .cls-6 {
        fill: #fff;
      }
    </style>
  </defs>
  <g id="_214320" data-name="214320" transform="translate(-18428.32 -2830.742)">
    <path id="Path_3299" data-name="Path 3299" class="cls-1" d="M30.156,85.09c1.641.716,6.175,2.774,7.786,3.431.179.09.6.06.537-.328-.358-3.878-2.536-26.1-2.924-30.041-.06-.567-.239-.656-.656-.805-1.283-.477-4.385-1.581-5.668-2.029a1.393,1.393,0,0,0-1.193,0c-2,.567-8.323,2.506-8.323,2.506s-6.593-2-8.651-2.566a1.4,1.4,0,0,0-1.193.03C8.557,55.7,5.514,56.838,4.2,57.316a.851.851,0,0,0-.656.805C3.128,61.969.741,84.284.323,88.192c-.03.448.358.418.716.3,1.79-.716,6.324-2.685,7.935-3.341a1.278,1.278,0,0,1,1.193,0c1.82.746,7.16,3.162,8.92,3.878a1.3,1.3,0,0,0,1.193,0c1.76-.746,6.921-3.132,8.651-3.908A1.455,1.455,0,0,1,30.156,85.09Z" transform="translate(0 -50.961)"/>
    <path id="Path_3300" data-name="Path 3300" class="cls-2" d="M10.675,55.4a1.653,1.653,0,0,0-.805.119c-1.313.418-4.356,1.551-5.668,2.029a.851.851,0,0,0-.656.805C3.128,62.2.741,84.517.323,88.425c-.03.448.358.418.716.3,1.79-.716,6.324-2.685,7.935-3.341a1.3,1.3,0,0,1,.776-.119S10.675,55.4,10.675,55.4Zm17.81,0a2.778,2.778,0,0,0-.388.119c-2,.6-8.085,2.446-8.353,2.536V89.38a1.594,1.594,0,0,0,.6-.149c1.76-.746,6.921-3.132,8.651-3.908a1.706,1.706,0,0,1,.418-.119Z" transform="translate(0 -51.194)"/>
    <path id="Path_3301" data-name="Path 3301" class="cls-3" d="M44.852,101.106l5.221-5.221,5.31,5.31c1.1-.507,2.178-1.014,3.043-1.4L39.363,80.76l9.248-9.248c-.955-.3-2.208-.656-3.4-1.014l-8.055,8.055-3.311-3.311c-.119,1.134-.269,2.506-.418,4.027L47.865,93.708l-6.056,6.056c.835.358,1.939.835,3.043,1.342Z" transform="translate(-30.597 -65.158)"/>
    <path id="Path_3302" data-name="Path 3302" class="cls-4" d="M40.974,129.02l.149-4.564-3.968,3.938-3.311-3.282c-.119,1.134-.269,2.506-.418,4.027l7.339,7.339.119-4.326-1.492-1.492Zm9.338,17,5.042,5.042c1.1-.507,2.178-1.014,3.043-1.4l-8.085-8.085Z" transform="translate(-30.597 -115.029)"/>
    <path id="Path_3303" data-name="Path 3303" class="cls-5" d="M209.855,0a8.664,8.664,0,0,1,8.651,8.681,11,11,0,0,1-.776,3.908c-1.76,4.087-6,8.413-7.4,9.815-.358.328-.507.388-.955-.03-1.432-1.4-5.608-5.668-7.369-9.725a12.621,12.621,0,0,1-.805-3.968A8.664,8.664,0,0,1,209.855,0Z" transform="translate(-185.666)"/>
    <path id="Path_3304" data-name="Path 3304" class="cls-6" d="M260.818,55.138a4.475,4.475,0,1,0,4.475,4.475A4.469,4.469,0,0,0,260.818,55.138Zm0,7.16a2.685,2.685,0,1,1,2.685-2.685A2.674,2.674,0,0,1,260.818,62.3Z" transform="translate(-236.629 -50.961)"/>
  </g>
</svg>
